<svg xmlns="http://www.w3.org/2000/svg" viewBox="-2 -2 124 38" width="372" height="114">
	<clipPath id="vessel"><circle cx="50" cy="50" r="48" /></clipPath>
	<g transform="translate(0 0) scale(0.34)">
		<circle cx="50" cy="50" r="48" fill="#f5f5f5" fill-opacity="0.14" />
		<path clip-path="url(#vessel)" d="M0 50C16 41.33 34 41.33 50 50S84 58.67 100 50V100H0Z" fill="#f5f5f5" />
	</g>
	<g fill="none" stroke="#f5f5f5" stroke-width="4.4" stroke-linecap="round" stroke-linejoin="round" transform="translate(44 1)"><path d="M2 30V11M2 17.5C2 13 4.8 10 8.5 10s5.7 3 5.7 7.5V30m0-12.5c0-4.5 2.8-7.5 6.5-7.5s5.7 3 5.7 7.5V30" /><path d="M34 11v19" /><path d="M41.5 10.5H53L41.5 29.5H53" /><path d="M60.5 11v11.5c0 4.5 2.8 7.5 6.5 7.5s5.7-3 5.7-7.5M72.7 11v19" /><circle cx="34" cy="3.6" r="2.8" fill="#f5f5f5" stroke="none" /></g>
</svg>
